<svg width="117" height="29" viewBox="0 0 117 29" fill="none" xmlns="http://www.w3.org/2000/svg">
<path d="M110.61 0H94.9196C91.3904 0 88.5293 2.86106 88.5293 6.39035V22.0802C88.5293 25.6095 91.3904 28.4706 94.9196 28.4706H110.61C114.139 28.4706 117 25.6095 117 22.0802V6.39035C117 2.86106 114.139 0 110.61 0Z" fill="#F9F9F9"/>
<path d="M99.4396 12.3151H97.1614V18.9866H99.4396V12.3151Z" fill="#67687B"/>
<path d="M99.0566 9.20164C98.8395 9.07017 98.5843 9 98.3233 9C98.1491 9 97.9767 9.03124 97.8159 9.09194C97.6551 9.15264 97.5091 9.24159 97.3863 9.35367C97.2635 9.46576 97.1663 9.59878 97.1004 9.74507C97.0344 9.89136 97.001 10.048 97.002 10.2061C97.0035 10.443 97.0822 10.6742 97.2283 10.8705C97.3744 11.0668 97.5813 11.2194 97.8229 11.3091C98.0644 11.3988 98.3299 11.4216 98.5857 11.3745C98.8415 11.3275 99.0762 11.2127 99.2602 11.0448C99.4443 10.8768 99.5694 10.6631 99.6197 10.4306C99.6701 10.1982 99.6435 9.95744 99.5433 9.73872C99.4431 9.51999 99.2737 9.3331 99.0566 9.20164Z" fill="#67687B"/>
<path d="M103.096 12.3147H100.902L100.894 19H103.172V15.6987C103.172 14.8303 103.355 13.9895 104.539 13.9895C105.724 13.9895 105.724 14.9888 105.724 15.7607V18.9862H108.002V15.3265C108.002 13.5277 107.539 12.1493 105.261 12.1493C104.826 12.1339 104.396 12.2258 104.015 12.4151C103.633 12.6045 103.316 12.8842 103.096 13.2245V12.3147Z" fill="#67687B"/>
<path d="M24.9118 0H3.55882C1.59613 0 0 1.59613 0 3.55882V24.9118C0 26.8745 1.59613 28.4706 3.55882 28.4706H24.9118C26.8745 28.4706 28.4706 26.8745 28.4706 24.9118V3.55882C28.4706 1.59613 26.8745 0 24.9118 0Z" fill="#F9F9F9"/>
<path fill-rule="evenodd" clip-rule="evenodd" d="M18 12.6154H15.6667V10.7692C15.6667 10.2597 16.0848 10.3077 16.6 10.3077H17.5333V8H15.6667C14.9241 8 14.2119 8.29176 13.6868 8.81109C13.1617 9.33042 12.8667 10.0348 12.8667 10.7692V12.6154H11V14.9231H12.8667V20H15.6667V14.9231H17.0667L18 12.6154Z" fill="#67687B"/>
<path d="M72.4688 24.5163C72.4688 25.5651 72.059 26.5709 71.3297 27.3124C70.6004 28.054 69.6113 28.4706 68.5799 28.4706H48.3576C47.3262 28.4706 46.3371 28.054 45.6078 27.3124C44.8785 26.5709 44.4688 25.5651 44.4688 24.5163V3.95425C44.4688 2.90552 44.8785 1.89974 45.6078 1.15817C46.3371 0.416607 47.3262 0 48.3576 0H68.5799C69.6113 0 70.6004 0.416607 71.3297 1.15817C72.059 1.89974 72.4688 2.90552 72.4688 3.95425V24.5163Z" fill="#F9F9F9"/>
<path d="M63.877 11.0042C63.4795 11.1894 62.976 11.3633 62.5247 11.4211C62.9836 11.1349 63.7116 10.5391 63.877 10C63.4483 10.2648 62.673 10.5476 62.1673 10.6499C61.7634 10.1999 61.1873 10 60.5491 10C59.323 10 58.4679 11.0918 58.4679 12.3684V13.3158C56.6649 13.3158 54.9069 11.8725 53.813 10.4737C53.6151 10.8262 53.5113 11.2283 53.5123 11.6375C53.5123 12.4992 54.2655 13.3736 54.8619 13.7895C54.4981 13.7776 53.8093 13.4858 53.5096 13.3158V13.3428C53.5096 14.464 54.2583 15.2252 55.273 15.4374C55.0877 15.4909 54.8619 15.6842 53.9928 15.6842C54.275 16.6008 55.6935 17.0854 56.6649 17.1053C55.9049 17.7244 54.5499 18.0526 53.5096 18.0526C53.3297 18.0526 53.2324 18.0631 53.0588 18.0417C54.0406 18.6954 55.4118 19 56.6649 19C60.7474 19 62.9755 15.7231 62.9755 12.6668C62.9755 12.5664 62.9723 12.2301 62.9674 12.1316C63.4037 11.8085 63.5804 11.4703 63.877 11.0042" fill="#67687B"/>
</svg>
