<svg width="185" height="166" viewBox="0 0 185 166" fill="none" xmlns="http://www.w3.org/2000/svg">
<path d="M178.293 73.1882V60.7747M172.086 66.9814H184.5H172.086Z" stroke="#8BD2BD" stroke-miterlimit="10"/>
<path d="M178.293 42.6318V30.2183M172.086 36.425H184.5H172.086Z" stroke="#8BD2BD" stroke-miterlimit="10"/>
<path d="M178.293 13.0305V0.616943M172.086 6.82371H184.5H172.086Z" stroke="#8BD2BD" stroke-miterlimit="10"/>
<path d="M178.293 73.1882V60.7747M172.086 66.9814H184.5H172.086Z" stroke="#1D262D" stroke-width="2" stroke-miterlimit="10"/>
<path d="M178.293 42.6318V30.2183M172.086 36.425H184.5H172.086Z" stroke="#1D262D" stroke-width="2" stroke-miterlimit="10"/>
<path d="M178.293 13.0305V0.616943M172.086 6.82371H184.5H172.086Z" stroke="#1D262D" stroke-width="2" stroke-miterlimit="10"/>
<path d="M149.647 73.1882V60.7747M143.44 66.9814H155.853H143.44Z" stroke="#8BD2BD" stroke-miterlimit="10"/>
<path d="M149.647 42.6318V30.2183M143.44 36.425H155.853H143.44Z" stroke="#8BD2BD" stroke-miterlimit="10"/>
<path d="M149.646 13.0305V0.616943M143.439 6.82371H155.853H143.439Z" stroke="#8BD2BD" stroke-miterlimit="10"/>
<path d="M149.647 73.1882V60.7747M143.44 66.9814H155.853H143.44Z" stroke="#1D262D" stroke-width="2" stroke-miterlimit="10"/>
<path d="M149.647 42.6318V30.2183M143.44 36.425H155.853H143.44Z" stroke="#1D262D" stroke-width="2" stroke-miterlimit="10"/>
<path d="M149.646 13.0305V0.616943M143.439 6.82371H155.853H143.439Z" stroke="#1D262D" stroke-width="2" stroke-miterlimit="10"/>
<path d="M121 42.6318V30.2183M114.793 36.425H127.207H114.793Z" stroke="#8BD2BD" stroke-miterlimit="10"/>
<path d="M121 13.0305V0.616943M114.793 6.82371H127.206H114.793Z" stroke="#8BD2BD" stroke-miterlimit="10"/>
<path d="M121 42.6318V30.2183M114.793 36.425H127.207H114.793Z" stroke="#1D262D" stroke-width="2" stroke-miterlimit="10"/>
<path d="M121 13.0305V0.616943M114.793 6.82371H127.206H114.793Z" stroke="#1D262D" stroke-width="2" stroke-miterlimit="10"/>
<path d="M92.3533 42.6318V30.2183M86.1465 36.425H98.5601H86.1465Z" stroke="#8BD2BD" stroke-miterlimit="10"/>
<path d="M92.3533 13.0305V0.616943M86.1465 6.82371H98.5601H86.1465Z" stroke="#8BD2BD" stroke-miterlimit="10"/>
<path d="M92.3533 42.6318V30.2183M86.1465 36.425H98.5601H86.1465Z" stroke="#1D262D" stroke-width="2" stroke-miterlimit="10"/>
<path d="M92.3533 13.0305V0.616943M86.1465 6.82371H98.5601H86.1465Z" stroke="#1D262D" stroke-width="2" stroke-miterlimit="10"/>
<path d="M63.7068 42.6318V30.2183M57.5 36.425H69.9136H57.5Z" stroke="#8BD2BD" stroke-miterlimit="10"/>
<path d="M63.7068 13.0305V0.616943M57.5 6.82371H69.9136H57.5Z" stroke="#8BD2BD" stroke-miterlimit="10"/>
<path d="M63.7068 42.6318V30.2183M57.5 36.425H69.9136H57.5Z" stroke="#1D262D" stroke-width="2" stroke-miterlimit="10"/>
<path d="M63.7068 13.0305V0.616943M57.5 6.82371H69.9136H57.5Z" stroke="#1D262D" stroke-width="2" stroke-miterlimit="10"/>
<path d="M121.293 135.188V122.775M115.086 128.981H127.5H115.086Z" stroke="#8BD2BD" stroke-miterlimit="10"/>
<path d="M121.293 104.632V92.2183M115.086 98.425H127.5H115.086Z" stroke="#8BD2BD" stroke-miterlimit="10"/>
<path d="M121.293 75.0305V62.6169M115.086 68.8237H127.5H115.086Z" stroke="#8BD2BD" stroke-miterlimit="10"/>
<path d="M121.293 135.188V122.775M115.086 128.981H127.5H115.086Z" stroke="#1D262D" stroke-width="2" stroke-miterlimit="10"/>
<path d="M121.293 104.632V92.2183M115.086 98.425H127.5H115.086Z" stroke="#1D262D" stroke-width="2" stroke-miterlimit="10"/>
<path d="M121.293 75.0305V62.6169M115.086 68.8237H127.5H115.086Z" stroke="#1D262D" stroke-width="2" stroke-miterlimit="10"/>
<path d="M92.6465 135.188V122.775M86.4397 128.981H98.8533H86.4397Z" stroke="#8BD2BD" stroke-miterlimit="10"/>
<path d="M92.6465 104.632V92.2183M86.4397 98.425H98.8533H86.4397Z" stroke="#8BD2BD" stroke-miterlimit="10"/>
<path d="M92.646 75.0305V62.6169M86.4392 68.8237H98.8528H86.4392Z" stroke="#8BD2BD" stroke-miterlimit="10"/>
<path d="M92.6465 135.188V122.775M86.4397 128.981H98.8533H86.4397Z" stroke="#1D262D" stroke-width="2" stroke-miterlimit="10"/>
<path d="M92.6465 104.632V92.2183M86.4397 98.425H98.8533H86.4397Z" stroke="#1D262D" stroke-width="2" stroke-miterlimit="10"/>
<path d="M92.646 75.0305V62.6169M86.4392 68.8237H98.8528H86.4392Z" stroke="#1D262D" stroke-width="2" stroke-miterlimit="10"/>
<path d="M64 104.632V92.2183M57.7933 98.425H70.2068H57.7933Z" stroke="#8BD2BD" stroke-miterlimit="10"/>
<path d="M63.9995 75.0305V62.6169M57.7928 68.8237H70.2063H57.7928Z" stroke="#8BD2BD" stroke-miterlimit="10"/>
<path d="M64 104.632V92.2183M57.7933 98.425H70.2068H57.7933Z" stroke="#1D262D" stroke-width="2" stroke-miterlimit="10"/>
<path d="M63.9995 75.0305V62.6169M57.7928 68.8237H70.2063H57.7928Z" stroke="#1D262D" stroke-width="2" stroke-miterlimit="10"/>
<path d="M35.3533 104.632V92.2183M29.1465 98.425H41.5601H29.1465Z" stroke="#8BD2BD" stroke-miterlimit="10"/>
<path d="M35.3533 75.0305V62.6169M29.1465 68.8237H41.5601H29.1465Z" stroke="#8BD2BD" stroke-miterlimit="10"/>
<path d="M35.3533 104.632V92.2183M29.1465 98.425H41.5601H29.1465Z" stroke="#1D262D" stroke-width="2" stroke-miterlimit="10"/>
<path d="M35.3533 75.0305V62.6169M29.1465 68.8237H41.5601H29.1465Z" stroke="#1D262D" stroke-width="2" stroke-miterlimit="10"/>
<path d="M6.70681 104.632V92.2183M0.50004 98.425H12.9136H0.50004Z" stroke="#8BD2BD" stroke-miterlimit="10"/>
<path d="M6.70681 75.0305V62.6169M0.50004 68.8237H12.9136H0.50004Z" stroke="#8BD2BD" stroke-miterlimit="10"/>
<path d="M6.70681 104.632V92.2183M0.50004 98.425H12.9136H0.50004Z" stroke="#1D262D" stroke-width="2" stroke-miterlimit="10"/>
<path d="M6.70681 75.0305V62.6169M0.50004 68.8237H12.9136H0.50004Z" stroke="#1D262D" stroke-width="2" stroke-miterlimit="10"/>
<path d="M121.293 165.188V152.775M115.086 158.981H127.5H115.086Z" stroke="#8BD2BD" stroke-miterlimit="10"/>
<path d="M121.293 134.632V122.218M115.086 128.425H127.5H115.086Z" stroke="#8BD2BD" stroke-miterlimit="10"/>
<path d="M121.293 105.03V92.6169M115.086 98.8237H127.5H115.086Z" stroke="#8BD2BD" stroke-miterlimit="10"/>
<path d="M121.293 165.188V152.775M115.086 158.981H127.5H115.086Z" stroke="#1D262D" stroke-width="2" stroke-miterlimit="10"/>
<path d="M121.293 134.632V122.218M115.086 128.425H127.5H115.086Z" stroke="#1D262D" stroke-width="2" stroke-miterlimit="10"/>
<path d="M121.293 105.03V92.6169M115.086 98.8237H127.5H115.086Z" stroke="#1D262D" stroke-width="2" stroke-miterlimit="10"/>
<path d="M92.6465 165.188V152.775M86.4397 158.981H98.8533H86.4397Z" stroke="#8BD2BD" stroke-miterlimit="10"/>
<path d="M92.6465 134.632V122.218M86.4397 128.425H98.8533H86.4397Z" stroke="#8BD2BD" stroke-miterlimit="10"/>
<path d="M92.646 105.03V92.6169M86.4392 98.8237H98.8528H86.4392Z" stroke="#8BD2BD" stroke-miterlimit="10"/>
<path d="M92.6465 165.188V152.775M86.4397 158.981H98.8533H86.4397Z" stroke="#1D262D" stroke-width="2" stroke-miterlimit="10"/>
<path d="M92.6465 134.632V122.218M86.4397 128.425H98.8533H86.4397Z" stroke="#1D262D" stroke-width="2" stroke-miterlimit="10"/>
<path d="M92.646 105.03V92.6169M86.4392 98.8237H98.8528H86.4392Z" stroke="#1D262D" stroke-width="2" stroke-miterlimit="10"/>
<path d="M64 134.632V122.218M57.7933 128.425H70.2068H57.7933Z" stroke="#8BD2BD" stroke-miterlimit="10"/>
<path d="M63.9995 105.03V92.6169M57.7928 98.8237H70.2063H57.7928Z" stroke="#8BD2BD" stroke-miterlimit="10"/>
<path d="M64 134.632V122.218M57.7933 128.425H70.2068H57.7933Z" stroke="#1D262D" stroke-width="2" stroke-miterlimit="10"/>
<path d="M63.9995 105.03V92.6169M57.7928 98.8237H70.2063H57.7928Z" stroke="#1D262D" stroke-width="2" stroke-miterlimit="10"/>
<path d="M35.3533 134.632V122.218M29.1465 128.425H41.5601H29.1465Z" stroke="#8BD2BD" stroke-miterlimit="10"/>
<path d="M35.3533 105.03V92.6169M29.1465 98.8237H41.5601H29.1465Z" stroke="#8BD2BD" stroke-miterlimit="10"/>
<path d="M35.3533 134.632V122.218M29.1465 128.425H41.5601H29.1465Z" stroke="#1D262D" stroke-width="2" stroke-miterlimit="10"/>
<path d="M35.3533 105.03V92.6169M29.1465 98.8237H41.5601H29.1465Z" stroke="#1D262D" stroke-width="2" stroke-miterlimit="10"/>
<path d="M6.70681 134.632V122.218M0.50004 128.425H12.9136H0.50004Z" stroke="#8BD2BD" stroke-miterlimit="10"/>
<path d="M6.70681 105.03V92.6169M0.50004 98.8237H12.9136H0.50004Z" stroke="#8BD2BD" stroke-miterlimit="10"/>
<path d="M6.70681 134.632V122.218M0.50004 128.425H12.9136H0.50004Z" stroke="#1D262D" stroke-width="2" stroke-miterlimit="10"/>
<path d="M6.70681 105.03V92.6169M0.50004 98.8237H12.9136H0.50004Z" stroke="#1D262D" stroke-width="2" stroke-miterlimit="10"/>
</svg>
