<svg width="263" height="192" viewBox="0 0 263 192" fill="none" xmlns="http://www.w3.org/2000/svg">
<path d="M144.66 50.2869C144.66 52.314 143.016 53.9668 140.98 53.9668C138.943 53.9668 137.3 52.3232 137.3 50.2869C137.3 48.2598 138.943 46.607 140.98 46.607C143.016 46.607 144.66 48.2507 144.66 50.2869Z" fill="#FFE031"/>
<path d="M164.383 50.2869C164.383 52.314 162.74 53.9668 160.703 53.9668C158.676 53.9668 157.023 52.3232 157.023 50.2869C157.023 48.2598 158.667 46.607 160.703 46.607C162.73 46.607 164.383 48.2507 164.383 50.2869Z" fill="#FFE031"/>
<path d="M184.106 50.2869C184.106 52.314 182.463 53.9668 180.426 53.9668C178.39 53.9668 176.747 52.3232 176.747 50.2869C176.747 48.2598 178.39 46.607 180.426 46.607C182.463 46.607 184.106 48.2507 184.106 50.2869Z" fill="#FFE031"/>
<path d="M203.821 50.2869C203.821 52.314 202.177 53.9668 200.141 53.9668C198.105 53.9668 196.461 52.3232 196.461 50.2869C196.461 48.2598 198.105 46.607 200.141 46.607C202.177 46.607 203.821 48.2507 203.821 50.2869Z" fill="#1D262D"/>
<path d="M223.544 50.2869C223.544 52.314 221.901 53.9668 219.864 53.9668C217.837 53.9668 216.185 52.3232 216.185 50.2869C216.185 48.2598 217.828 46.607 219.864 46.607C221.901 46.607 223.544 48.2507 223.544 50.2869Z" fill="#FFE031"/>
<path d="M243.267 50.2869C243.267 52.314 241.624 53.9668 239.588 53.9668C237.551 53.9668 235.908 52.3232 235.908 50.2869C235.908 48.2598 237.551 46.607 239.588 46.607C241.624 46.607 243.267 48.2507 243.267 50.2869Z" fill="#FFE031"/>
<path d="M262.991 50.2869C262.991 52.314 261.347 53.9668 259.311 53.9668C257.275 53.9668 255.631 52.3232 255.631 50.2869C255.631 48.2598 257.275 46.607 259.311 46.607C261.347 46.607 262.991 48.2507 262.991 50.2869Z" fill="#1D262D"/>
<path d="M144.66 65.5181C144.66 63.4858 143.012 61.8382 140.98 61.8382C138.947 61.8382 137.3 63.4858 137.3 65.5181C137.3 67.5505 138.947 69.198 140.98 69.198C143.012 69.198 144.66 67.5505 144.66 65.5181Z" fill="#FFE031"/>
<path d="M164.383 65.5181C164.383 67.5452 162.74 69.198 160.703 69.198C158.676 69.198 157.023 67.5544 157.023 65.5181C157.023 63.491 158.667 61.8382 160.703 61.8382C162.73 61.8382 164.383 63.491 164.383 65.5181Z" stroke="#FFE031" stroke-miterlimit="10"/>
<path d="M184.106 65.5181C184.106 63.4858 182.459 61.8382 180.426 61.8382C178.394 61.8382 176.747 63.4858 176.747 65.5181C176.747 67.5505 178.394 69.198 180.426 69.198C182.459 69.198 184.106 67.5505 184.106 65.5181Z" fill="#FFE031"/>
<path d="M203.83 65.5181C203.83 63.4858 202.182 61.8382 200.15 61.8382C198.118 61.8382 196.47 63.4858 196.47 65.5181C196.47 67.5505 198.118 69.198 200.15 69.198C202.182 69.198 203.83 67.5505 203.83 65.5181Z" fill="#FFE031"/>
<path d="M223.544 65.5181C223.544 67.5452 221.901 69.198 219.864 69.198C217.837 69.198 216.185 67.5544 216.185 65.5181C216.185 63.491 217.828 61.8382 219.864 61.8382C221.901 61.8382 223.544 63.491 223.544 65.5181Z" fill="#FFE031"/>
<path d="M243.277 65.5181C243.277 63.4858 241.629 61.8382 239.597 61.8382C237.565 61.8382 235.917 63.4858 235.917 65.5181C235.917 67.5505 237.565 69.198 239.597 69.198C241.629 69.198 243.277 67.5505 243.277 65.5181Z" stroke="#FFE031" stroke-miterlimit="10"/>
<path d="M263 65.5181C263 63.4858 261.352 61.8382 259.32 61.8382C257.288 61.8382 255.64 63.4858 255.64 65.5181C255.64 67.5505 257.288 69.198 259.32 69.198C261.352 69.198 263 67.5505 263 65.5181Z" fill="#FFE031"/>
<path d="M144.66 80.7581C144.66 78.7258 143.012 77.0782 140.98 77.0782C138.947 77.0782 137.3 78.7258 137.3 80.7581C137.3 82.7905 138.947 84.438 140.98 84.438C143.012 84.438 144.66 82.7905 144.66 80.7581Z" fill="#FFE031"/>
<path d="M164.383 80.7581C164.383 82.7852 162.74 84.438 160.703 84.438C158.676 84.438 157.023 82.7944 157.023 80.7581C157.023 78.7218 158.667 77.0782 160.703 77.0782C162.73 77.0782 164.383 78.7218 164.383 80.7581Z" fill="#FFE031"/>
<path d="M184.106 80.7581C184.106 78.7258 182.459 77.0782 180.426 77.0782C178.394 77.0782 176.747 78.7258 176.747 80.7581C176.747 82.7905 178.394 84.438 180.426 84.438C182.459 84.438 184.106 82.7905 184.106 80.7581Z" fill="#FFE031"/>
<path d="M203.83 80.7581C203.83 78.7258 202.182 77.0782 200.15 77.0782C198.118 77.0782 196.47 78.7258 196.47 80.7581C196.47 82.7905 198.118 84.438 200.15 84.438C202.182 84.438 203.83 82.7905 203.83 80.7581Z" fill="#FFE031"/>
<path d="M223.544 80.7581C223.544 82.7852 221.901 84.438 219.864 84.438C217.837 84.438 216.185 82.7944 216.185 80.7581C216.185 78.7218 217.828 77.0782 219.864 77.0782C221.901 77.0782 223.544 78.7218 223.544 80.7581Z" fill="#1D262D"/>
<path d="M243.277 80.7581C243.277 78.7258 241.629 77.0782 239.597 77.0782C237.565 77.0782 235.917 78.7258 235.917 80.7581C235.917 82.7905 237.565 84.438 239.597 84.438C241.629 84.438 243.277 82.7905 243.277 80.7581Z" fill="#FFE031"/>
<path d="M263 80.7581C263 78.7258 261.352 77.0782 259.32 77.0782C257.288 77.0782 255.64 78.7258 255.64 80.7581C255.64 82.7905 257.288 84.438 259.32 84.438C261.352 84.438 263 82.7905 263 80.7581Z" fill="#FFE031"/>
<path d="M144.66 95.9981C144.66 93.9658 143.012 92.3182 140.98 92.3182C138.947 92.3182 137.3 93.9658 137.3 95.9981C137.3 98.0304 138.947 99.678 140.98 99.678C143.012 99.678 144.66 98.0304 144.66 95.9981Z" fill="#FFE031"/>
<path d="M164.383 95.9981C164.383 98.0252 162.74 99.678 160.703 99.678C158.676 99.678 157.023 98.0344 157.023 95.9981C157.023 93.9618 158.667 92.3182 160.703 92.3182C162.73 92.3182 164.383 93.9618 164.383 95.9981Z" fill="#1D262D"/>
<path d="M184.106 95.9981C184.106 93.9658 182.459 92.3182 180.426 92.3182C178.394 92.3182 176.747 93.9658 176.747 95.9981C176.747 98.0304 178.394 99.678 180.426 99.678C182.459 99.678 184.106 98.0304 184.106 95.9981Z" fill="#FFE031"/>
<path d="M203.83 95.9981C203.83 93.9658 202.182 92.3182 200.15 92.3182C198.118 92.3182 196.47 93.9658 196.47 95.9981C196.47 98.0304 198.118 99.678 200.15 99.678C202.182 99.678 203.83 98.0304 203.83 95.9981Z" stroke="#FFE031" stroke-miterlimit="10"/>
<path d="M223.544 95.9981C223.544 98.0252 221.901 99.678 219.864 99.678C217.837 99.678 216.185 98.0344 216.185 95.9981C216.185 93.9618 217.828 92.3182 219.864 92.3182C221.901 92.3182 223.544 93.9618 223.544 95.9981Z" fill="#FFE031"/>
<path d="M243.277 95.9981C243.277 93.9658 241.629 92.3182 239.597 92.3182C237.565 92.3182 235.917 93.9658 235.917 95.9981C235.917 98.0304 237.565 99.678 239.597 99.678C241.629 99.678 243.277 98.0304 243.277 95.9981Z" fill="#FFE031"/>
<path d="M263 95.9981C263 93.9658 261.352 92.3182 259.32 92.3182C257.288 92.3182 255.64 93.9658 255.64 95.9981C255.64 98.0304 257.288 99.678 259.32 99.678C261.352 99.678 263 98.0304 263 95.9981Z" fill="#FFE031"/>
<path d="M144.66 111.229C144.66 109.197 143.012 107.549 140.98 107.549C138.947 107.549 137.3 109.197 137.3 111.229C137.3 113.261 138.947 114.909 140.98 114.909C143.012 114.909 144.66 113.261 144.66 111.229Z" stroke="#FFE031" stroke-miterlimit="10"/>
<path d="M164.383 111.229C164.383 113.256 162.74 114.909 160.703 114.909C158.676 114.909 157.023 113.265 157.023 111.229C157.023 109.202 158.667 107.549 160.703 107.549C162.73 107.549 164.383 109.202 164.383 111.229Z" fill="#FFE031"/>
<path d="M184.106 111.229C184.106 109.197 182.459 107.549 180.426 107.549C178.394 107.549 176.747 109.197 176.747 111.229C176.747 113.261 178.394 114.909 180.426 114.909C182.459 114.909 184.106 113.261 184.106 111.229Z" fill="#FFE031"/>
<path d="M203.83 111.229C203.83 109.197 202.182 107.549 200.15 107.549C198.118 107.549 196.47 109.197 196.47 111.229C196.47 113.261 198.118 114.909 200.15 114.909C202.182 114.909 203.83 113.261 203.83 111.229Z" fill="#FFE031"/>
<path d="M223.544 111.229C223.544 113.256 221.901 114.909 219.864 114.909C217.837 114.909 216.185 113.265 216.185 111.229C216.185 109.202 217.828 107.549 219.864 107.549C221.901 107.549 223.544 109.202 223.544 111.229Z" fill="#FFE031"/>
<path d="M243.277 111.229C243.277 109.197 241.629 107.549 239.597 107.549C237.565 107.549 235.917 109.197 235.917 111.229C235.917 113.261 237.565 114.909 239.597 114.909C241.629 114.909 243.277 113.261 243.277 111.229Z" fill="#FFE031"/>
<path d="M263 111.229C263 109.197 261.353 107.549 259.321 107.549C257.288 107.549 255.641 109.197 255.641 111.229C255.641 113.261 257.288 114.909 259.321 114.909C261.353 114.909 263 113.261 263 111.229Z" fill="#FFE031"/>
<path d="M203.829 4.61309C203.829 2.58075 202.182 0.933208 200.15 0.933208C198.117 0.933208 196.47 2.58075 196.47 4.61309C196.47 6.64543 198.117 8.29297 200.15 8.29297C202.182 8.29297 203.829 6.64543 203.829 4.61309Z" fill="#FFE031"/>
<path d="M223.544 4.61309C223.544 6.64022 221.9 8.29297 219.864 8.29297C217.837 8.29297 216.184 6.64935 216.184 4.61309C216.184 2.57683 217.828 0.933208 219.864 0.933208C221.9 0.933208 223.544 2.57683 223.544 4.61309Z" fill="#1D262D"/>
<path d="M243.276 4.61309C243.276 2.58075 241.629 0.933208 239.596 0.933208C237.564 0.933208 235.917 2.58075 235.917 4.61309C235.917 6.64543 237.564 8.29297 239.596 8.29297C241.629 8.29297 243.276 6.64543 243.276 4.61309Z" fill="#FFE031"/>
<path d="M263 4.61309C263 2.58075 261.352 0.933208 259.32 0.933208C257.288 0.933208 255.64 2.58075 255.64 4.61309C255.64 6.64543 257.288 8.29297 259.32 8.29297C261.352 8.29297 263 6.64543 263 4.61309Z" fill="#FFE031"/>
<path d="M184.106 19.8531C184.106 17.8207 182.459 16.1732 180.426 16.1732C178.394 16.1732 176.747 17.8207 176.747 19.8531C176.747 21.8854 178.394 23.533 180.426 23.533C182.459 23.533 184.106 21.8854 184.106 19.8531Z" fill="#FFE031"/>
<path d="M203.829 19.8531C203.829 17.8207 202.182 16.1732 200.15 16.1732C198.117 16.1732 196.47 17.8207 196.47 19.8531C196.47 21.8854 198.117 23.533 200.15 23.533C202.182 23.533 203.829 21.8854 203.829 19.8531Z" stroke="#FFE031" stroke-miterlimit="10"/>
<path d="M223.544 19.8531C223.544 21.8802 221.9 23.533 219.864 23.533C217.837 23.533 216.184 21.8893 216.184 19.8531C216.184 17.8168 217.828 16.1732 219.864 16.1732C221.9 16.1732 223.544 17.8168 223.544 19.8531Z" fill="#FFE031"/>
<path d="M243.276 19.8531C243.276 17.8207 241.629 16.1732 239.596 16.1732C237.564 16.1732 235.917 17.8207 235.917 19.8531C235.917 21.8854 237.564 23.533 239.596 23.533C241.629 23.533 243.276 21.8854 243.276 19.8531Z" fill="#FFE031"/>
<path d="M263 19.8531C263 17.8207 261.352 16.1732 259.32 16.1732C257.288 16.1732 255.64 17.8207 255.64 19.8531C255.64 21.8854 257.288 23.533 259.32 23.533C261.352 23.533 263 21.8854 263 19.8531Z" fill="#FFE031"/>
<path d="M164.383 35.084C164.383 37.1112 162.739 38.7639 160.703 38.7639C158.676 38.7639 157.023 37.1203 157.023 35.084C157.023 33.0569 158.667 31.4042 160.703 31.4042C162.73 31.4042 164.383 33.0569 164.383 35.084Z" fill="#FFE031"/>
<path d="M184.106 35.084C184.106 33.0517 182.459 31.4042 180.426 31.4042C178.394 31.4042 176.747 33.0517 176.747 35.084C176.747 37.1164 178.394 38.7639 180.426 38.7639C182.459 38.7639 184.106 37.1164 184.106 35.084Z" fill="#FFE031"/>
<path d="M203.829 35.084C203.829 33.0517 202.182 31.4042 200.15 31.4042C198.117 31.4042 196.47 33.0517 196.47 35.084C196.47 37.1164 198.117 38.7639 200.15 38.7639C202.182 38.7639 203.829 37.1164 203.829 35.084Z" fill="#FFE031"/>
<path d="M223.544 35.084C223.544 37.1112 221.9 38.7639 219.864 38.7639C217.837 38.7639 216.184 37.1203 216.184 35.084C216.184 33.0569 217.828 31.4042 219.864 31.4042C221.9 31.4042 223.544 33.0569 223.544 35.084Z" fill="#FFE031"/>
<path d="M243.276 35.084C243.276 33.0517 241.629 31.4042 239.596 31.4042C237.564 31.4042 235.917 33.0517 235.917 35.084C235.917 37.1164 237.564 38.7639 239.596 38.7639C241.629 38.7639 243.276 37.1164 243.276 35.084Z" fill="#FFE031"/>
<path d="M263 35.084C263 33.0517 261.352 31.4042 259.32 31.4042C257.288 31.4042 255.64 33.0517 255.64 35.084C255.64 37.1164 257.288 38.7639 259.32 38.7639C261.352 38.7639 263 37.1164 263 35.084Z" fill="#FFE031"/>
<path d="M47.8065 126.445C47.8065 128.472 46.1629 130.125 44.1267 130.125C42.0904 130.125 40.4468 128.481 40.4468 126.445C40.4468 124.418 42.0904 122.765 44.1267 122.765C46.1629 122.765 47.8065 124.409 47.8065 126.445Z" fill="#FFE031"/>
<path d="M67.5209 126.445C67.5209 128.472 65.8773 130.125 63.841 130.125C61.8048 130.125 60.1611 128.481 60.1611 126.445C60.1611 124.418 61.8048 122.765 63.841 122.765C65.8773 122.765 67.5209 124.409 67.5209 126.445Z" fill="#1D262D"/>
<path d="M87.2446 126.445C87.2446 128.472 85.6009 130.125 83.5647 130.125C81.5375 130.125 79.8848 128.481 79.8848 126.445C79.8848 124.418 81.5284 122.765 83.5647 122.765C85.6009 122.765 87.2446 124.409 87.2446 126.445Z" fill="#FFE031"/>
<path d="M106.968 126.445C106.968 128.472 105.324 130.125 103.288 130.125C101.252 130.125 99.6079 128.481 99.6079 126.445C99.6079 124.418 101.252 122.765 103.288 122.765C105.324 122.765 106.968 124.409 106.968 126.445Z" fill="#FFE031"/>
<path d="M126.691 126.445C126.691 128.472 125.048 130.125 123.011 130.125C120.975 130.125 119.332 128.481 119.332 126.445C119.332 124.418 120.975 122.765 123.011 122.765C125.048 122.765 126.691 124.409 126.691 126.445Z" fill="#1D262D"/>
<path d="M28.0829 141.676C28.0829 143.703 26.4393 145.356 24.403 145.356C22.3759 145.356 20.7231 143.713 20.7231 141.676C20.7231 139.649 22.3668 137.996 24.403 137.996C26.4302 137.996 28.0829 139.649 28.0829 141.676Z" stroke="#FFE031" stroke-miterlimit="10"/>
<path d="M47.8065 141.676C47.8065 139.644 46.159 137.996 44.1267 137.996C42.0943 137.996 40.4468 139.644 40.4468 141.676C40.4468 143.709 42.0943 145.356 44.1267 145.356C46.159 145.356 47.8065 143.709 47.8065 141.676Z" fill="#FFE031"/>
<path d="M67.5302 141.676C67.5302 139.644 65.8826 137.996 63.8503 137.996C61.8179 137.996 60.1704 139.644 60.1704 141.676C60.1704 143.709 61.8179 145.356 63.8503 145.356C65.8826 145.356 67.5302 143.709 67.5302 141.676Z" fill="#FFE031"/>
<path d="M87.2446 141.676C87.2446 143.703 85.6009 145.356 83.5647 145.356C81.5375 145.356 79.8848 143.713 79.8848 141.676C79.8848 139.649 81.5284 137.996 83.5647 137.996C85.6009 137.996 87.2446 139.649 87.2446 141.676Z" fill="#FFE031"/>
<path d="M106.977 141.676C106.977 139.644 105.329 137.996 103.297 137.996C101.265 137.996 99.6172 139.644 99.6172 141.676C99.6172 143.709 101.265 145.356 103.297 145.356C105.329 145.356 106.977 143.709 106.977 141.676Z" stroke="#FFE031" stroke-miterlimit="10"/>
<path d="M126.7 141.676C126.7 139.644 125.053 137.996 123.02 137.996C120.988 137.996 119.34 139.644 119.34 141.676C119.34 143.709 120.988 145.356 123.02 145.356C125.053 145.356 126.7 143.709 126.7 141.676Z" fill="#FFE031"/>
<path d="M8.35976 156.916C8.35976 154.884 6.71222 153.236 4.67988 153.236C2.64754 153.236 1 154.884 1 156.916C1 158.949 2.64754 160.596 4.67988 160.596C6.71222 160.596 8.35976 158.949 8.35976 156.916Z" fill="#FFE031"/>
<path d="M28.0829 156.916C28.0829 158.943 26.4393 160.596 24.403 160.596C22.3759 160.596 20.7231 158.953 20.7231 156.916C20.7231 154.88 22.3668 153.236 24.403 153.236C26.4302 153.236 28.0829 154.88 28.0829 156.916Z" fill="#FFE031"/>
<path d="M47.8065 156.916C47.8065 154.884 46.159 153.236 44.1267 153.236C42.0943 153.236 40.4468 154.884 40.4468 156.916C40.4468 158.949 42.0943 160.596 44.1267 160.596C46.159 160.596 47.8065 158.949 47.8065 156.916Z" fill="#FFE031"/>
<path d="M67.5302 156.916C67.5302 154.884 65.8826 153.236 63.8503 153.236C61.8179 153.236 60.1704 154.884 60.1704 156.916C60.1704 158.949 61.8179 160.596 63.8503 160.596C65.8826 160.596 67.5302 158.949 67.5302 156.916Z" fill="#FFE031"/>
<path d="M87.2446 156.916C87.2446 158.943 85.6009 160.596 83.5647 160.596C81.5375 160.596 79.8848 158.953 79.8848 156.916C79.8848 154.88 81.5284 153.236 83.5647 153.236C85.6009 153.236 87.2446 154.88 87.2446 156.916Z" fill="#1D262D"/>
<path d="M106.977 156.916C106.977 154.884 105.329 153.236 103.297 153.236C101.265 153.236 99.6172 154.884 99.6172 156.916C99.6172 158.949 101.265 160.596 103.297 160.596C105.329 160.596 106.977 158.949 106.977 156.916Z" fill="#FFE031"/>
<path d="M126.7 156.916C126.7 154.884 125.053 153.236 123.02 153.236C120.988 153.236 119.34 154.884 119.34 156.916C119.34 158.949 120.988 160.596 123.02 160.596C125.053 160.596 126.7 158.949 126.7 156.916Z" fill="#FFE031"/>
<path d="M8.35976 172.156C8.35976 170.124 6.71222 168.476 4.67988 168.476C2.64754 168.476 1 170.124 1 172.156C1 174.189 2.64754 175.836 4.67988 175.836C6.71222 175.836 8.35976 174.189 8.35976 172.156Z" fill="#FFE031"/>
<path d="M28.0829 172.156C28.0829 174.183 26.4393 175.836 24.403 175.836C22.3759 175.836 20.7231 174.193 20.7231 172.156C20.7231 170.12 22.3668 168.476 24.403 168.476C26.4302 168.476 28.0829 170.12 28.0829 172.156Z" fill="#1D262D"/>
<path d="M47.8065 172.156C47.8065 170.124 46.159 168.476 44.1267 168.476C42.0943 168.476 40.4468 170.124 40.4468 172.156C40.4468 174.189 42.0943 175.836 44.1267 175.836C46.159 175.836 47.8065 174.189 47.8065 172.156Z" fill="#FFE031"/>
<path d="M67.5302 172.156C67.5302 170.124 65.8826 168.476 63.8503 168.476C61.8179 168.476 60.1704 170.124 60.1704 172.156C60.1704 174.189 61.8179 175.836 63.8503 175.836C65.8826 175.836 67.5302 174.189 67.5302 172.156Z" stroke="#FFE031" stroke-miterlimit="10"/>
<path d="M87.2446 172.156C87.2446 174.183 85.6009 175.836 83.5647 175.836C81.5375 175.836 79.8848 174.193 79.8848 172.156C79.8848 170.12 81.5284 168.476 83.5647 168.476C85.6009 168.476 87.2446 170.12 87.2446 172.156Z" fill="#FFE031"/>
<path d="M106.977 172.156C106.977 170.124 105.329 168.476 103.297 168.476C101.265 168.476 99.6172 170.124 99.6172 172.156C99.6172 174.189 101.265 175.836 103.297 175.836C105.329 175.836 106.977 174.189 106.977 172.156Z" fill="#FFE031"/>
<path d="M126.7 172.156C126.7 170.124 125.053 168.476 123.02 168.476C120.988 168.476 119.34 170.124 119.34 172.156C119.34 174.189 120.988 175.836 123.02 175.836C125.053 175.836 126.7 174.189 126.7 172.156Z" fill="#FFE031"/>
<path d="M8.35976 187.387C8.35976 185.355 6.71222 183.707 4.67988 183.707C2.64754 183.707 1 185.355 1 187.387C1 189.42 2.64754 191.067 4.67988 191.067C6.71222 191.067 8.35976 189.42 8.35976 187.387Z" stroke="#FFE031" stroke-miterlimit="10"/>
<path d="M28.0829 187.387C28.0829 189.414 26.4393 191.067 24.403 191.067C22.3759 191.067 20.7231 189.424 20.7231 187.387C20.7231 185.36 22.3668 183.707 24.403 183.707C26.4302 183.707 28.0829 185.36 28.0829 187.387Z" fill="#FFE031"/>
<path d="M47.8065 187.387C47.8065 185.355 46.159 183.707 44.1267 183.707C42.0943 183.707 40.4468 185.355 40.4468 187.387C40.4468 189.42 42.0943 191.067 44.1267 191.067C46.159 191.067 47.8065 189.42 47.8065 187.387Z" fill="#FFE031"/>
<path d="M67.5302 187.387C67.5302 185.355 65.8826 183.707 63.8503 183.707C61.8179 183.707 60.1704 185.355 60.1704 187.387C60.1704 189.42 61.8179 191.067 63.8503 191.067C65.8826 191.067 67.5302 189.42 67.5302 187.387Z" fill="#FFE031"/>
<path d="M87.2446 187.387C87.2446 189.414 85.6009 191.067 83.5647 191.067C81.5375 191.067 79.8848 189.424 79.8848 187.387C79.8848 185.36 81.5284 183.707 83.5647 183.707C85.6009 183.707 87.2446 185.36 87.2446 187.387Z" fill="#FFE031"/>
<path d="M106.977 187.387C106.977 185.355 105.329 183.707 103.297 183.707C101.265 183.707 99.6172 185.355 99.6172 187.387C99.6172 189.42 101.265 191.067 103.297 191.067C105.329 191.067 106.977 189.42 106.977 187.387Z" fill="#FFE031"/>
<path d="M126.701 187.387C126.701 185.355 125.053 183.707 123.021 183.707C120.988 183.707 119.341 185.355 119.341 187.387C119.341 189.42 120.988 191.067 123.021 191.067C125.053 191.067 126.701 189.42 126.701 187.387Z" fill="#FFE031"/>
<path d="M119.564 65.5293C119.564 63.497 121.211 61.8495 123.243 61.8495C125.276 61.8495 126.923 63.497 126.923 65.5293C126.923 67.5617 125.276 69.2092 123.243 69.2092C121.211 69.2092 119.564 67.5617 119.564 65.5293Z" fill="#FFE031"/>
<path d="M119.564 80.7691C119.564 78.7368 121.211 77.0892 123.243 77.0892C125.276 77.0892 126.923 78.7368 126.923 80.7691C126.923 82.8014 125.276 84.449 123.243 84.449C121.211 84.449 119.564 82.8014 119.564 80.7691Z" fill="#FFE031"/>
<path d="M99.8399 80.7691C99.8399 82.7962 101.484 84.449 103.52 84.449C105.547 84.449 107.2 82.8054 107.2 80.7691C107.2 78.7328 105.556 77.0892 103.52 77.0892C101.493 77.0892 99.8399 78.7328 99.8399 80.7691Z" fill="#FFE031"/>
<path d="M119.564 96.0091C119.564 93.9767 121.211 92.3292 123.243 92.3292C125.276 92.3292 126.923 93.9767 126.923 96.0091C126.923 98.0414 125.276 99.689 123.243 99.689C121.211 99.689 119.564 98.0414 119.564 96.0091Z" fill="#FFE031"/>
<path d="M99.8399 96.0091C99.8399 98.0362 101.484 99.689 103.52 99.689C105.547 99.689 107.2 98.0453 107.2 96.0091C107.2 93.9728 105.556 92.3292 103.52 92.3292C101.493 92.3292 99.8399 93.9728 99.8399 96.0091Z" fill="#1D262D"/>
<path d="M80.1168 96.0091C80.1168 93.9767 81.7643 92.3292 83.7967 92.3292C85.829 92.3292 87.4766 93.9767 87.4766 96.0091C87.4766 98.0414 85.829 99.689 83.7967 99.689C81.7643 99.689 80.1168 98.0414 80.1168 96.0091Z" fill="#FFE031"/>
<path d="M119.564 111.24C119.564 109.208 121.211 107.56 123.243 107.56C125.276 107.56 126.923 109.208 126.923 111.24C126.923 113.272 125.276 114.92 123.243 114.92C121.211 114.92 119.564 113.272 119.564 111.24Z" stroke="#FFE031" stroke-miterlimit="10"/>
<path d="M99.8399 111.24C99.8399 113.267 101.484 114.92 103.52 114.92C105.547 114.92 107.2 113.276 107.2 111.24C107.2 109.213 105.556 107.56 103.52 107.56C101.493 107.56 99.8399 109.213 99.8399 111.24Z" fill="#FFE031"/>
<path d="M80.1168 111.24C80.1168 109.208 81.7643 107.56 83.7967 107.56C85.829 107.56 87.4766 109.208 87.4766 111.24C87.4766 113.272 85.829 114.92 83.7967 114.92C81.7643 114.92 80.1168 113.272 80.1168 111.24Z" fill="#FFE031"/>
<path d="M60.3932 111.24C60.3932 109.208 62.0407 107.56 64.073 107.56C66.1054 107.56 67.7529 109.208 67.7529 111.24C67.7529 113.272 66.1054 114.92 64.073 114.92C62.0407 114.92 60.3932 113.272 60.3932 111.24Z" fill="#FFE031"/>
<path d="M144.66 141.674C144.66 139.642 143.012 137.994 140.98 137.994C138.947 137.994 137.3 139.642 137.3 141.674C137.3 143.706 138.947 145.354 140.98 145.354C143.012 145.354 144.66 143.706 144.66 141.674Z" fill="#FFE031"/>
<path d="M144.66 156.914C144.66 154.882 143.012 153.234 140.98 153.234C138.947 153.234 137.3 154.882 137.3 156.914C137.3 158.946 138.947 160.594 140.98 160.594C143.012 160.594 144.66 158.946 144.66 156.914Z" fill="#FFE031"/>
<path d="M164.383 156.914C164.383 158.941 162.74 160.594 160.703 160.594C158.676 160.594 157.023 158.95 157.023 156.914C157.023 154.878 158.667 153.234 160.703 153.234C162.73 153.234 164.383 154.878 164.383 156.914Z" fill="#FFE031"/>
<path d="M144.66 172.154C144.66 170.122 143.012 168.474 140.98 168.474C138.947 168.474 137.3 170.122 137.3 172.154C137.3 174.186 138.947 175.834 140.98 175.834C143.012 175.834 144.66 174.186 144.66 172.154Z" fill="#FFE031"/>
<path d="M164.383 172.154C164.383 174.181 162.74 175.834 160.703 175.834C158.676 175.834 157.023 174.19 157.023 172.154C157.023 170.118 158.667 168.474 160.703 168.474C162.73 168.474 164.383 170.118 164.383 172.154Z" fill="#1D262D"/>
<path d="M184.106 172.154C184.106 170.122 182.459 168.474 180.426 168.474C178.394 168.474 176.747 170.122 176.747 172.154C176.747 174.186 178.394 175.834 180.426 175.834C182.459 175.834 184.106 174.186 184.106 172.154Z" fill="#FFE031"/>
<path d="M144.66 187.385C144.66 185.352 143.012 183.705 140.98 183.705C138.947 183.705 137.3 185.352 137.3 187.385C137.3 189.417 138.947 191.065 140.98 191.065C143.012 191.065 144.66 189.417 144.66 187.385Z" stroke="#FFE031" stroke-miterlimit="10"/>
<path d="M164.383 187.385C164.383 189.412 162.74 191.065 160.703 191.065C158.676 191.065 157.023 189.421 157.023 187.385C157.023 185.358 158.667 183.705 160.703 183.705C162.73 183.705 164.383 185.358 164.383 187.385Z" fill="#FFE031"/>
<path d="M184.106 187.385C184.106 185.352 182.459 183.705 180.426 183.705C178.394 183.705 176.747 185.352 176.747 187.385C176.747 189.417 178.394 191.065 180.426 191.065C182.459 191.065 184.106 189.417 184.106 187.385Z" fill="#FFE031"/>
<path d="M203.83 187.385C203.83 185.352 202.182 183.705 200.15 183.705C198.118 183.705 196.47 185.352 196.47 187.385C196.47 189.417 198.118 191.065 200.15 191.065C202.182 191.065 203.83 189.417 203.83 187.385Z" fill="#FFE031"/>
<path d="M144.66 126.432C144.66 128.459 143.016 130.112 140.98 130.112C138.943 130.112 137.3 128.468 137.3 126.432C137.3 124.405 138.943 122.752 140.98 122.752C143.016 122.752 144.66 124.396 144.66 126.432Z" fill="#FFE031"/>
<path d="M164.383 126.432C164.383 128.459 162.739 130.112 160.703 130.112C158.676 130.112 157.023 128.468 157.023 126.432C157.023 124.405 158.667 122.752 160.703 122.752C162.73 122.752 164.383 124.396 164.383 126.432Z" fill="#FFE031"/>
<path d="M184.106 126.432C184.106 128.459 182.463 130.112 180.426 130.112C178.39 130.112 176.747 128.468 176.747 126.432C176.747 124.405 178.39 122.752 180.426 122.752C182.463 122.752 184.106 124.396 184.106 126.432Z" fill="#FFE031"/>
<path d="M203.821 126.432C203.821 128.459 202.177 130.112 200.141 130.112C198.105 130.112 196.461 128.468 196.461 126.432C196.461 124.405 198.105 122.752 200.141 122.752C202.177 122.752 203.821 124.396 203.821 126.432Z" fill="#1D262D"/>
<path d="M223.544 126.432C223.544 128.459 221.901 130.112 219.864 130.112C217.837 130.112 216.185 128.468 216.185 126.432C216.185 124.405 217.828 122.752 219.864 122.752C221.901 122.752 223.544 124.396 223.544 126.432Z" fill="#FFE031"/>
<path d="M243.267 126.432C243.267 128.459 241.624 130.112 239.588 130.112C237.551 130.112 235.908 128.468 235.908 126.432C235.908 124.405 237.551 122.752 239.588 122.752C241.624 122.752 243.267 124.396 243.267 126.432Z" fill="#FFE031"/>
<path d="M262.991 126.432C262.991 128.459 261.347 130.112 259.311 130.112C257.275 130.112 255.631 128.468 255.631 126.432C255.631 124.405 257.275 122.752 259.311 122.752C261.347 122.752 262.991 124.396 262.991 126.432Z" fill="#1D262D"/>
<path d="M164.383 141.663C164.383 143.691 162.739 145.343 160.703 145.343C158.676 145.343 157.023 143.7 157.023 141.663C157.023 139.636 158.667 137.984 160.703 137.984C162.73 137.984 164.383 139.636 164.383 141.663Z" stroke="#FFE031" stroke-miterlimit="10"/>
<path d="M184.106 141.663C184.106 139.631 182.459 137.984 180.426 137.984C178.394 137.984 176.747 139.631 176.747 141.663C176.747 143.696 178.394 145.343 180.426 145.343C182.459 145.343 184.106 143.696 184.106 141.663Z" fill="#FFE031"/>
<path d="M203.83 141.663C203.83 139.631 202.182 137.984 200.15 137.984C198.118 137.984 196.47 139.631 196.47 141.663C196.47 143.696 198.118 145.343 200.15 145.343C202.182 145.343 203.83 143.696 203.83 141.663Z" fill="#FFE031"/>
<path d="M223.544 141.663C223.544 143.691 221.901 145.343 219.864 145.343C217.837 145.343 216.185 143.7 216.185 141.663C216.185 139.636 217.828 137.984 219.864 137.984C221.901 137.984 223.544 139.636 223.544 141.663Z" fill="#FFE031"/>
<path d="M243.277 141.663C243.277 139.631 241.629 137.984 239.597 137.984C237.565 137.984 235.917 139.631 235.917 141.663C235.917 143.696 237.565 145.343 239.597 145.343C241.629 145.343 243.277 143.696 243.277 141.663Z" stroke="#FFE031" stroke-miterlimit="10"/>
<path d="M263 141.663C263 139.631 261.352 137.984 259.32 137.984C257.288 137.984 255.64 139.631 255.64 141.663C255.64 143.696 257.288 145.343 259.32 145.343C261.352 145.343 263 143.696 263 141.663Z" fill="#FFE031"/>
<path d="M184.106 156.903C184.106 154.871 182.459 153.223 180.426 153.223C178.394 153.223 176.747 154.871 176.747 156.903C176.747 158.935 178.394 160.583 180.426 160.583C182.459 160.583 184.106 158.935 184.106 156.903Z" fill="#FFE031"/>
<path d="M203.83 156.903C203.83 154.871 202.182 153.223 200.15 153.223C198.118 153.223 196.47 154.871 196.47 156.903C196.47 158.935 198.118 160.583 200.15 160.583C202.182 160.583 203.83 158.935 203.83 156.903Z" fill="#FFE031"/>
<path d="M223.544 156.903C223.544 158.93 221.901 160.583 219.864 160.583C217.837 160.583 216.185 158.939 216.185 156.903C216.185 154.867 217.828 153.223 219.864 153.223C221.901 153.223 223.544 154.867 223.544 156.903Z" fill="#1D262D"/>
<path d="M243.277 156.903C243.277 154.871 241.629 153.223 239.597 153.223C237.565 153.223 235.917 154.871 235.917 156.903C235.917 158.935 237.565 160.583 239.597 160.583C241.629 160.583 243.277 158.935 243.277 156.903Z" fill="#FFE031"/>
<path d="M263 156.903C263 154.871 261.352 153.223 259.32 153.223C257.288 153.223 255.64 154.871 255.64 156.903C255.64 158.935 257.288 160.583 259.32 160.583C261.352 160.583 263 158.935 263 156.903Z" fill="#FFE031"/>
<path d="M203.83 172.143C203.83 170.111 202.182 168.463 200.15 168.463C198.118 168.463 196.47 170.111 196.47 172.143C196.47 174.176 198.118 175.823 200.15 175.823C202.182 175.823 203.83 174.176 203.83 172.143Z" stroke="#FFE031" stroke-miterlimit="10"/>
<path d="M223.544 172.143C223.544 174.17 221.901 175.823 219.864 175.823C217.837 175.823 216.185 174.18 216.185 172.143C216.185 170.107 217.828 168.463 219.864 168.463C221.901 168.463 223.544 170.107 223.544 172.143Z" fill="#FFE031"/>
<path d="M243.277 172.143C243.277 170.111 241.629 168.463 239.597 168.463C237.565 168.463 235.917 170.111 235.917 172.143C235.917 174.176 237.565 175.823 239.597 175.823C241.629 175.823 243.277 174.176 243.277 172.143Z" fill="#FFE031"/>
<path d="M263 172.143C263 170.111 261.352 168.463 259.32 168.463C257.288 168.463 255.64 170.111 255.64 172.143C255.64 174.176 257.288 175.823 259.32 175.823C261.352 175.823 263 174.176 263 172.143Z" fill="#FFE031"/>
<path d="M223.544 187.374C223.544 189.401 221.901 191.054 219.864 191.054C217.837 191.054 216.185 189.411 216.185 187.374C216.185 185.347 217.828 183.694 219.864 183.694C221.901 183.694 223.544 185.347 223.544 187.374Z" fill="#FFE031"/>
<path d="M243.277 187.374C243.277 185.342 241.629 183.694 239.597 183.694C237.565 183.694 235.917 185.342 235.917 187.374C235.917 189.407 237.565 191.054 239.597 191.054C241.629 191.054 243.277 189.407 243.277 187.374Z" fill="#FFE031"/>
<path d="M263 187.374C263 185.342 261.352 183.694 259.32 183.694C257.288 183.694 255.64 185.342 255.64 187.374C255.64 189.407 257.288 191.054 259.32 191.054C261.352 191.054 263 189.407 263 187.374Z" fill="#FFE031"/>
</svg>
