<svg width="79" height="46" viewBox="0 0 79 46" fill="none" xmlns="http://www.w3.org/2000/svg">
<path d="M74.6848 2.45227C74.6848 1.26227 75.6548 0.302246 76.8348 0.302246C78.0248 0.302246 78.9849 1.27227 78.9849 2.45227C78.9849 3.63227 78.0148 4.60223 76.8348 4.60223C75.6448 4.60223 74.6848 3.64227 74.6848 2.45227Z" fill="#0B315E"/>
<path d="M56.2146 2.45227C56.2146 1.26227 57.1847 0.302246 58.3647 0.302246C59.5547 0.302246 60.5146 1.27227 60.5146 2.45227C60.5146 3.63227 59.5447 4.60223 58.3647 4.60223C57.1847 4.60223 56.2146 3.64227 56.2146 2.45227Z" fill="#0B315E"/>
<path d="M56.2146 22.7023C56.2146 21.5123 57.1847 20.5522 58.3647 20.5522C59.5547 20.5522 60.5146 21.5223 60.5146 22.7023C60.5146 23.8923 59.5447 24.8522 58.3647 24.8522C57.1847 24.8622 56.2146 23.8923 56.2146 22.7023Z" fill="#0B315E"/>
<path d="M37.7449 2.45227C37.7449 1.26227 38.7149 0.302246 39.8949 0.302246C41.0849 0.302246 42.0449 1.27227 42.0449 2.45227C42.0449 3.63227 41.0749 4.60223 39.8949 4.60223C38.7149 4.60223 37.7449 3.64227 37.7449 2.45227Z" fill="#0B315E"/>
<path d="M37.7449 22.7023C37.7449 21.5123 38.7149 20.5522 39.8949 20.5522C41.0849 20.5522 42.0449 21.5223 42.0449 22.7023C42.0449 23.8923 41.0749 24.8522 39.8949 24.8522C38.7149 24.8622 37.7449 23.8923 37.7449 22.7023Z" fill="#0B315E"/>
<path d="M37.7449 42.9523C37.7449 41.7623 38.7149 40.8022 39.8949 40.8022C41.0849 40.8022 42.0449 41.7723 42.0449 42.9523C42.0449 44.1423 41.0749 45.1022 39.8949 45.1022C38.7149 45.1122 37.7449 44.1423 37.7449 42.9523Z" fill="#0B315E"/>
<path d="M19.285 2.45227C19.285 1.26227 20.255 0.302246 21.435 0.302246C22.625 0.302246 23.585 1.27227 23.585 2.45227C23.585 3.63227 22.615 4.60223 21.435 4.60223C20.245 4.60223 19.285 3.64227 19.285 2.45227Z" fill="#0B315E"/>
<path d="M19.285 22.7023C19.285 21.5123 20.255 20.5522 21.435 20.5522C22.625 20.5522 23.585 21.5223 23.585 22.7023C23.585 23.8923 22.615 24.8522 21.435 24.8522C20.245 24.8622 19.285 23.8923 19.285 22.7023Z" fill="#0B315E"/>
<path d="M0.814728 2.45227C0.814728 3.63968 1.77731 4.60223 2.96472 4.60223C4.15213 4.60223 5.11475 3.63968 5.11475 2.45227C5.11475 1.26486 4.15213 0.302246 2.96472 0.302246C1.77731 0.302246 0.814728 1.26486 0.814728 2.45227Z" fill="#0B315E"/>
</svg>
