<svg width="74" height="74" viewBox="0 0 74 74" fill="none" xmlns="http://www.w3.org/2000/svg">
<g clip-path="url(#clip0_92_2012)">
<path d="M71.8273 61.5958H67.4538V32.6694C67.4538 31.4715 66.4811 30.5003 65.2812 30.5003H53.285C52.0851 30.5003 51.1124 31.4715 51.1124 32.6694V61.5958H45.1708V24.0758C45.1708 22.8779 44.198 21.9067 42.9981 21.9067H31.002C29.8021 21.9067 28.8294 22.8779 28.8294 24.0758V61.5958H22.8878V30.374C22.8878 29.1761 21.915 28.2049 20.7151 28.2049H8.71884C7.51892 28.2049 6.54618 29.1761 6.54618 30.374V61.5958H2.17266C0.972744 61.5958 0 62.5669 0 63.7648C0 64.9627 0.972744 65.9339 2.17266 65.9339H71.8273C73.0273 65.9339 74 64.9627 74 63.7648C74 62.5669 73.0273 61.5958 71.8273 61.5958V61.5958ZM10.8915 61.5958V32.543H18.5424V61.5958H10.8915ZM33.1745 61.5958V26.2448H40.8255V61.5958H33.1745ZM55.4577 61.5958V34.8384H63.1086V61.5958H55.4577Z" fill="#263541"/>
<path d="M72.4117 16.3206C72.4837 15.4141 71.9553 14.3009 70.7454 14.0194L63.7373 12.316C62.5728 12.0321 61.4002 12.7472 61.1173 13.9112C60.8344 15.0753 61.5485 16.2483 62.7126 16.5311L64.6948 17.013L59.0758 20.4804L37.7706 8.35109C37.1581 8.00217 36.4137 7.97281 35.776 8.27257L14.5983 18.2129L4.47447 11.8947C3.45834 11.2601 2.12033 11.5701 1.48596 12.5864C0.851727 13.6025 1.16147 14.9405 2.17774 15.5749L13.3029 22.518C13.9272 22.9077 14.7066 22.9543 15.3729 22.6415L36.6013 12.6772L58.0474 24.8867C58.6054 25.1794 59.3833 25.3311 60.2597 24.8475L67.0712 20.6441L66.6176 22.7686C66.1184 25.5946 70.1189 26.3971 70.86 23.6747L72.3636 16.6334C72.3806 16.5348 72.387 16.5486 72.4117 16.3206V16.3206Z" fill="#54B8FF"/>
</g>
<defs>
<clipPath id="clip0_92_2012">
<rect width="74" height="74" fill="white"/>
</clipPath>
</defs>
</svg>
