<svg width="74" height="74" viewBox="0 0 74 74" fill="none" xmlns="http://www.w3.org/2000/svg">
<path d="M49.4705 28.2371H68.6902C69.5263 28.2371 70.3308 27.8837 70.8971 27.2674C71.4638 26.6506 71.7484 25.8185 71.6775 24.9841C71.4105 21.8301 69.9828 18.9066 67.6574 16.7517C66.9561 16.1021 66.1919 15.5399 65.3793 15.0709C66.948 13.4707 67.9171 11.2775 67.9171 8.8615C67.9171 3.97533 63.9529 0 59.0803 0C54.2076 0 50.2434 3.97533 50.2434 8.86164C50.2434 11.2776 51.2125 13.4709 52.7814 15.071C51.969 15.54 51.2045 16.1022 50.5034 16.7519C48.1779 18.9066 46.7502 21.8303 46.4833 24.9842C46.4126 25.8185 46.697 26.6508 47.2638 27.2676C47.83 27.8837 48.6343 28.2371 49.4705 28.2371ZM54.5793 8.86164C54.5793 6.36617 56.5984 4.33594 59.0803 4.33594C61.5621 4.33594 63.5812 6.36617 63.5812 8.86164C63.5812 11.3573 61.5621 13.3874 59.0803 13.3874C56.5984 13.3874 54.5793 11.3571 54.5793 8.86164ZM53.4504 19.9323C54.9878 18.5078 56.9872 17.7233 59.0803 17.7233C61.1734 17.7233 63.1727 18.5078 64.7101 19.9323C65.8775 21.0138 66.7012 22.3892 67.1046 23.9011H51.0561C51.4595 22.3892 52.2832 21.014 53.4504 19.9323Z" fill="#263541"/>
<path d="M13.6809 28.2371H32.9005C33.7366 28.2371 34.5411 27.8837 35.1074 27.2674C35.6741 26.6506 35.9587 25.8185 35.8878 24.9841C35.6207 21.8301 34.1931 18.9066 31.8677 16.7517C31.1666 16.1021 30.4022 15.5399 29.5897 15.0709C31.1586 13.4706 32.1277 11.2775 32.1277 8.8615C32.1277 3.97533 28.1635 0 23.2908 0C18.4181 0 14.4539 3.97533 14.4539 8.86164C14.4539 11.2776 15.4229 13.4709 16.9918 15.071C16.1794 15.54 15.415 16.1022 14.7139 16.7519C12.3884 18.9067 10.9607 21.8303 10.6937 24.9842C10.6231 25.8185 10.9075 26.6507 11.4742 27.2676C12.0405 27.8837 12.8448 28.2371 13.6809 28.2371ZM18.7898 8.86164C18.7898 6.36617 20.8089 4.33594 23.2908 4.33594C25.7727 4.33594 27.7918 6.36617 27.7918 8.86164C27.7918 11.3573 25.7727 13.3874 23.2908 13.3874C20.8089 13.3874 18.7898 11.3571 18.7898 8.86164ZM17.661 19.9323C19.1984 18.5078 21.1977 17.7233 23.2908 17.7233C25.3839 17.7233 27.3832 18.5078 28.9206 19.9323C30.0879 21.0138 30.9116 22.3892 31.315 23.9011H15.2664C15.6698 22.3892 16.4935 21.014 17.661 19.9323Z" fill="#263541"/>
<path d="M67.6574 52.8345C66.9561 52.1848 66.1919 51.6226 65.3793 51.1536C66.948 49.5535 67.9171 47.3602 67.9171 44.9444C67.9171 40.0579 63.9529 36.0828 59.0803 36.0828C54.2076 36.0828 50.2434 40.0581 50.2434 44.9444C50.2434 47.3602 51.2125 49.5535 52.7814 51.1536C51.969 51.6226 51.2045 52.1848 50.5034 52.8345C48.1779 54.9892 46.7502 57.9129 46.4833 61.0669C46.4126 61.9012 46.697 62.7336 47.2637 63.3503C47.83 63.9666 48.6342 64.32 49.4705 64.32H68.6902C69.5263 64.32 70.3306 63.9666 70.8971 63.3503C71.4638 62.7336 71.7484 61.9014 71.6775 61.0669C71.4106 57.9128 69.9829 54.9893 67.6574 52.8345ZM54.5795 44.9444C54.5795 42.4488 56.5986 40.4187 59.0805 40.4187C61.5622 40.4187 63.5813 42.4489 63.5813 44.9444C63.5813 47.4399 61.5622 49.4701 59.0805 49.4701C56.5986 49.47 54.5795 47.4397 54.5795 44.9444ZM51.0562 59.9839C51.4596 58.4719 52.2833 57.0964 53.4506 56.0149C54.9879 54.5904 56.9874 53.8059 59.0805 53.8059C61.1736 53.8059 63.1729 54.5904 64.7103 56.0149C65.8776 57.0964 66.7013 58.4719 67.1047 59.9839H51.0562Z" fill="#263541"/>
<path d="M23.2903 32.5886C12.7872 32.5886 4.24237 41.1343 4.24237 51.6384C4.24237 56.4629 6.04497 60.8743 9.01205 64.2343L2.94781 70.2993C2.10129 71.146 2.10143 72.5187 2.94795 73.3654C3.37128 73.7884 3.92599 74 4.48085 74C5.0357 74 5.5907 73.7883 6.01389 73.3649L12.2351 67.143C15.3544 69.3739 19.1717 70.6879 23.2903 70.6879C33.7934 70.6879 42.3382 62.1422 42.3382 51.6381C42.3382 41.134 33.7934 32.5886 23.2903 32.5886ZM23.2903 66.3521C15.178 66.3521 8.57831 59.7515 8.57831 51.6383C8.57831 43.525 15.178 36.9244 23.2903 36.9244C31.4025 36.9244 38.0023 43.525 38.0023 51.6383C38.0023 59.7515 31.4025 66.3521 23.2903 66.3521Z" fill="#54B8FF"/>
<path d="M29.3372 45.7708L20.7043 54.4046L17.2421 50.9419C16.3954 50.0954 15.0228 50.0955 14.176 50.9417C13.3295 51.7882 13.3293 53.161 14.1758 54.0078L19.1713 59.0037C19.5947 59.427 20.1496 59.6388 20.7043 59.6388C21.259 59.6388 21.814 59.427 22.2372 59.0038L22.2374 59.0037L32.4032 48.8366C33.2498 47.99 33.2496 46.6172 32.4031 45.7705C31.5563 44.924 30.1837 44.9242 29.3372 45.7708Z" fill="#54B8FF"/>
</svg>
