<svg width="17" height="16" viewBox="0 0 17 16" fill="none" xmlns="http://www.w3.org/2000/svg">
<path d="M10.4072 6.51953L6.86556 8.6846V4.35447L10.4072 6.51953Z" fill="black"/>
<path d="M15.5833 0H1.41667C0.634549 0 0 0.671875 0 1.5V11.5C0 12.3281 0.634549 13 1.41667 13H7.08333L6.61111 14.5H4.48611C4.09358 14.5 3.77778 14.8344 3.77778 15.25C3.77778 15.6656 4.09358 16 4.48611 16H12.5139C12.9064 16 13.2222 15.6656 13.2222 15.25C13.2222 14.8344 12.9064 14.5 12.5139 14.5H10.3889L9.91667 13H15.5833C16.3655 13 17 12.3281 17 11.5V1.5C17 0.671875 16.3655 0 15.5833 0ZM15.1111 11H1.88889V2H15.1111V11Z" fill="black"/>
</svg>
