<svg width="75" height="74" viewBox="0 0 75 74" fill="none" xmlns="http://www.w3.org/2000/svg">
<g clip-path="url(#clip0_92_2004)">
<path d="M30.9959 20.2572V29.2266L31.631 29.8616C31.8339 30.0644 36.7105 34.8324 46.1717 34.8324C55.6329 34.8324 60.5095 30.0644 60.7124 29.8615L61.3475 29.2264V20.2571L65.6834 18.5227V30.4964H70.0193V16.7884L73.6889 15.3206L46.1717 4.31372L18.6545 15.3206L30.9959 20.2572ZM57.0115 27.318C55.6314 28.3487 52.0496 30.4964 46.1717 30.4964C40.2938 30.4964 36.712 28.3487 35.3319 27.318V21.9915L46.1717 26.3274L57.0115 21.9915V27.318ZM62.0139 15.3206L46.1717 21.6575L30.3295 15.3206L46.1717 8.98381L62.0139 15.3206Z" fill="#263541"/>
<path d="M17.2084 18.8768L14.1424 15.8109L11.3686 18.5847C11.8496 10.6467 18.4587 4.33594 26.5153 4.33594V0C16.0505 0 7.48475 8.28121 7.02427 18.6344L4.20056 15.8109L1.13477 18.8768L9.17157 26.9136L17.2084 18.8768Z" fill="#54B8FF"/>
<path d="M73.8649 50.7873L65.8281 42.7505L57.7913 50.7873L60.8573 53.8532L63.6602 51.0503V54.4883C63.6602 62.8562 56.8523 69.6641 48.4844 69.6641V74C59.2431 74 67.9961 65.2471 67.9961 54.4883V51.0503L70.7991 53.8534L73.8649 50.7873Z" fill="#54B8FF"/>
<path d="M52.6756 60.848V47.1399L56.3451 45.6722L28.828 34.6653L1.31079 45.6722L13.6522 50.6088V59.5781L14.2872 60.2132C14.4902 60.416 19.3668 65.1839 28.828 65.1839C38.2891 65.1839 43.1657 60.416 43.3687 60.2131L44.0037 59.578V50.6087L48.3397 48.8743V60.848H52.6756ZM39.6678 57.6696C38.2877 58.7002 34.7059 60.848 28.828 60.848C22.95 60.848 19.3682 58.7002 17.9881 57.6696V52.343L28.828 56.679L39.6678 52.343V57.6696ZM28.828 52.009L12.9857 45.6722L28.828 39.3354L44.6702 45.6722L28.828 52.009Z" fill="#263541"/>
</g>
<defs>
<clipPath id="clip0_92_2004">
<rect width="74" height="74" fill="white" transform="translate(0.5)"/>
</clipPath>
</defs>
</svg>
