<svg width="1202" height="392" viewBox="0 0 1202 392" fill="none" xmlns="http://www.w3.org/2000/svg">
<rect x="0.812988" y="0.465332" width="1201" height="391" rx="2" fill="#D0ECFF"/>
<mask id="mask0_92_3299" style="mask-type:alpha" maskUnits="userSpaceOnUse" x="0" y="0" width="1202" height="392">
<rect x="0.812988" y="0.465332" width="1201" height="391" rx="2" fill="#54B8FF"/>
</mask>
<g mask="url(#mask0_92_3299)">
<path d="M144.711 146.858C91.7831 88.5758 20.9175 119.743 -2.8408 146.858V-13.9663C85.0024 -48.8723 306.017 -13.9668 312.269 218.857C317.207 402.748 71.8727 538.638 -66.613 577.598C-177.402 608.766 -84.2233 443.887 -23.7856 357.552C78.7502 347.581 240.994 263.116 144.711 146.858Z" fill="#C1E5FF"/>
<path d="M1072.84 139.072C1089.24 77.1089 1165.97 36.1829 1202.28 23.4653V237.672C1140.33 273.066 1052.34 216.527 1072.84 139.072Z" fill="#C1E5FF"/>
</g>
</svg>
