<svg width="267" height="267" viewBox="0 0 267 267" fill="none" xmlns="http://www.w3.org/2000/svg">
<path d="M41.3851 168.022C26.0849 141.823 21.9049 111.231 29.6069 81.8838L31.0121 82.2528C15.305 142.06 51.1782 203.487 110.985 219.194C139.957 226.803 170.158 222.675 196.017 207.573C221.877 192.471 240.318 168.193 247.92 139.225L249.326 139.594C241.617 168.944 222.941 193.528 196.742 208.829C170.543 224.129 139.951 228.309 110.604 220.607C81.2696 212.897 56.6853 194.221 41.3851 168.022Z" fill="#0B315E"/>
<path d="M48.1725 164.058C34.5111 140.665 29.7563 112.079 37.1635 83.8749L38.5688 84.244C23.9584 139.875 57.333 197.024 112.968 211.641C168.599 226.251 225.754 192.873 240.365 137.241L241.77 137.61C226.955 194.019 169.008 227.86 112.593 213.05C84.3946 205.639 61.8303 187.445 48.1725 164.058Z" fill="#0B315E"/>
<path d="M54.8806 160.141C41.6858 137.547 38.0833 111.165 44.7252 85.8548L46.1305 86.2239C39.5817 111.159 43.1389 137.146 56.1353 159.4C69.1353 181.66 90.0265 197.523 114.952 204.07C139.887 210.618 165.874 207.061 188.128 194.065C210.388 181.065 226.252 160.173 232.798 135.248L234.203 135.617C227.557 160.921 211.45 182.132 188.856 195.327C166.263 208.522 139.881 212.124 114.57 205.482C89.2824 198.835 68.0754 182.735 54.8806 160.141Z" fill="#0B315E"/>
<path d="M61.6684 156.177C50.0279 136.245 45.9753 111.881 52.2885 87.8425L53.6938 88.2116C41.2715 135.511 69.6453 184.097 116.945 196.519C164.245 208.941 212.83 180.567 225.252 133.268L226.657 133.637C214.031 181.714 164.647 210.554 116.576 197.924C92.5374 191.611 73.3089 176.11 61.6684 156.177Z" fill="#0B315E"/>
<path d="M68.4133 152.237C57.7832 134.035 54.0768 111.781 59.843 89.8253L61.2482 90.1944C49.92 133.328 75.7915 177.629 118.922 188.951C162.055 200.279 206.356 174.407 217.678 131.277L219.083 131.646C207.553 175.548 162.447 201.889 118.546 190.36C96.6043 184.602 79.0433 170.439 68.4133 152.237Z" fill="#0B315E"/>
<path d="M75.1594 148.299C65.5361 131.82 62.1858 111.679 67.4023 91.816L68.8076 92.185C58.5761 131.143 81.949 171.165 120.907 181.397C139.783 186.354 159.458 183.664 176.308 173.824C193.157 163.984 205.167 148.17 210.125 129.294L211.53 129.663C206.48 148.914 194.222 165.042 177.039 175.076C159.856 185.111 139.783 187.856 120.538 182.802C100.675 177.585 84.7827 164.777 75.1594 148.299Z" fill="#0B315E"/>
<path d="M81.9045 144.36C73.2917 129.612 70.2912 111.586 74.9633 93.7963L76.3685 94.1654C67.2311 128.957 88.1017 164.695 122.894 173.832C157.686 182.97 193.423 162.099 202.561 127.307L203.966 127.676C194.624 163.245 158.088 184.583 122.518 175.241C104.749 170.574 90.5173 159.108 81.9045 144.36Z" fill="#0B315E"/>
</svg>
