<svg width="87" height="147" viewBox="0 0 87 147" fill="none" xmlns="http://www.w3.org/2000/svg">
<path d="M76.4081 7.00515C74.8041 8.60912 72.2099 8.60912 70.6059 7.00515C69.0019 5.40119 69.0019 2.80694 70.6059 1.20297C72.2099 -0.400991 74.8041 -0.400991 76.4081 1.20297C77.9981 2.79299 77.9981 5.40119 76.4081 7.00515ZM93.7588 18.5397C92.1548 16.9358 89.5606 16.9358 87.9566 18.5397C86.3527 20.1437 86.3527 22.738 87.9566 24.3419C89.5606 25.9459 92.1548 25.9459 93.7588 24.3419C95.3488 22.7519 95.3488 20.1437 93.7588 18.5397ZM111.096 35.8905C109.492 34.2865 106.897 34.2865 105.293 35.8905C103.689 37.4944 103.689 40.0887 105.293 41.6926C106.897 43.2966 109.492 43.2966 111.096 41.6926C112.7 40.0887 112.7 37.4944 111.096 35.8905ZM128.446 53.2412C126.842 51.6372 124.248 51.6372 122.644 53.2412C121.04 54.8451 121.04 57.4394 122.644 59.0434C124.248 60.6473 126.842 60.6473 128.446 59.0434C130.05 57.4394 130.05 54.8451 128.446 53.2412ZM145.797 70.5919C144.193 68.9879 141.599 68.9879 139.995 70.5919C138.391 72.1959 138.391 74.7901 139.995 76.3941C141.599 77.9981 144.193 77.9981 145.797 76.3941C147.401 74.7901 147.401 72.1959 145.797 70.5919ZM59.0573 18.5397C57.4534 16.9358 54.8591 16.9358 53.2552 18.5397C51.6512 20.1437 51.6512 22.738 53.2552 24.3419C54.8591 25.9459 57.4534 25.9459 59.0573 24.3419C60.6613 22.7519 60.6613 20.1437 59.0573 18.5397ZM76.4081 35.8905C74.8041 34.2865 72.2099 34.2865 70.6059 35.8905C69.0019 37.4944 69.0019 40.0887 70.6059 41.6926C72.2099 43.2966 74.8041 43.2966 76.4081 41.6926C77.9981 40.0887 77.9981 37.4944 76.4081 35.8905ZM93.7588 53.2412C92.1548 51.6372 89.5606 51.6372 87.9566 53.2412C86.3527 54.8451 86.3527 57.4394 87.9566 59.0434C89.5606 60.6473 92.1548 60.6473 93.7588 59.0434C95.3488 57.4394 95.3488 54.8451 93.7588 53.2412ZM111.096 70.5919C109.492 68.9879 106.897 68.9879 105.293 70.5919C103.689 72.1959 103.689 74.7901 105.293 76.3941C106.897 77.9981 109.492 77.9981 111.096 76.3941C112.7 74.7901 112.7 72.1959 111.096 70.5919ZM128.446 87.9426C126.842 86.3386 124.248 86.3386 122.644 87.9426C121.04 89.5466 121.04 92.1409 122.644 93.7448C124.248 95.3488 126.842 95.3488 128.446 93.7448C130.05 92.1409 130.05 89.5466 128.446 87.9426ZM41.7066 35.8905C40.1026 34.2865 37.5084 34.2865 35.9044 35.8905C34.3005 37.4944 34.3005 40.0887 35.9044 41.6926C37.5084 43.2966 40.1026 43.2966 41.7066 41.6926C43.3106 40.0887 43.3106 37.4944 41.7066 35.8905ZM59.0573 53.2412C57.4534 51.6372 54.8591 51.6372 53.2552 53.2412C51.6512 54.8451 51.6512 57.4394 53.2552 59.0434C54.8591 60.6473 57.4534 60.6473 59.0573 59.0434C60.6613 57.4394 60.6613 54.8451 59.0573 53.2412ZM76.4081 70.5919C74.8041 68.9879 72.2099 68.9879 70.6059 70.5919C69.0019 72.1959 69.0019 74.7901 70.6059 76.3941C72.2099 77.9981 74.8041 77.9981 76.4081 76.3941C77.9981 74.7901 77.9981 72.1959 76.4081 70.5919ZM93.7588 87.9426C92.1548 86.3386 89.5606 86.3386 87.9566 87.9426C86.3527 89.5466 86.3527 92.1409 87.9566 93.7448C89.5606 95.3488 92.1548 95.3488 93.7588 93.7448C95.3488 92.1409 95.3488 89.5466 93.7588 87.9426ZM111.096 105.293C109.492 103.689 106.897 103.689 105.293 105.293C103.689 106.897 103.689 109.492 105.293 111.096C106.897 112.7 109.492 112.7 111.096 111.096C112.7 109.492 112.7 106.897 111.096 105.293ZM24.3559 53.2412C22.7519 51.6372 20.1577 51.6372 18.5537 53.2412C16.9497 54.8451 16.9497 57.4394 18.5537 59.0434C20.1577 60.6473 22.7519 60.6473 24.3559 59.0434C25.9598 57.4394 25.9598 54.8451 24.3559 53.2412ZM41.7066 70.5919C40.1026 68.9879 37.5084 68.9879 35.9044 70.5919C34.3005 72.1959 34.3005 74.7901 35.9044 76.3941C37.5084 77.9981 40.1026 77.9981 41.7066 76.3941C43.3106 74.7901 43.3106 72.1959 41.7066 70.5919ZM59.0573 87.9426C57.4534 86.3386 54.8591 86.3386 53.2552 87.9426C51.6512 89.5466 51.6512 92.1409 53.2552 93.7448C54.8591 95.3488 57.4534 95.3488 59.0573 93.7448C60.6613 92.1409 60.6613 89.5466 59.0573 87.9426ZM76.4081 105.293C74.8041 103.689 72.2099 103.689 70.6059 105.293C69.0019 106.897 69.0019 109.492 70.6059 111.096C72.2099 112.7 74.8041 112.7 76.4081 111.096C77.9981 109.492 77.9981 106.897 76.4081 105.293ZM93.7588 122.644C92.1548 121.04 89.5606 121.04 87.9566 122.644C86.3527 124.248 86.3527 126.842 87.9566 128.446C89.5606 130.05 92.1548 130.05 93.7588 128.446C95.3488 126.842 95.3488 124.248 93.7588 122.644ZM7.00515 70.5919C5.40119 68.9879 2.80694 68.9879 1.20297 70.5919C-0.400991 72.1959 -0.400991 74.7901 1.20297 76.3941C2.80694 77.9981 5.40119 77.9981 7.00515 76.3941C8.60912 74.7901 8.60912 72.1959 7.00515 70.5919ZM24.3559 87.9426C22.7519 86.3386 20.1577 86.3386 18.5537 87.9426C16.9497 89.5466 16.9497 92.1409 18.5537 93.7448C20.1577 95.3488 22.7519 95.3488 24.3559 93.7448C25.9598 92.1409 25.9598 89.5466 24.3559 87.9426ZM41.7066 105.293C40.1026 103.689 37.5084 103.689 35.9044 105.293C34.3005 106.897 34.3005 109.492 35.9044 111.096C37.5084 112.7 40.1026 112.7 41.7066 111.096C43.3106 109.492 43.3106 106.897 41.7066 105.293ZM59.0573 122.644C57.4534 121.04 54.8591 121.04 53.2552 122.644C51.6512 124.248 51.6512 126.842 53.2552 128.446C54.8591 130.05 57.4534 130.05 59.0573 128.446C60.6613 126.842 60.6613 124.248 59.0573 122.644ZM76.4081 139.995C74.8041 138.391 72.2099 138.391 70.6059 139.995C69.0019 141.599 69.0019 144.193 70.6059 145.797C72.2099 147.401 74.8041 147.401 76.4081 145.797C78.012 144.193 77.9981 141.599 76.4081 139.995Z" fill="#DA5077"/>
</svg>
