<svg width="194" height="79" viewBox="0 0 194 79" fill="none" xmlns="http://www.w3.org/2000/svg">
<path d="M176.87 58.8301L160.43 75.1901L143.98 58.8301L127.54 75.1901L111.1 58.8301L96.6 73.2601L82.09 58.8301L65.65 75.1901L49.2 58.8301L32.76 75.1901L16.32 58.8301L0 75.0701L1.82 76.8901L16.32 62.4601L32.76 78.8201L49.2 62.4601L65.65 78.8201L82.09 62.4601L96.6 76.9001L111.1 62.4601L127.54 78.8201L143.98 62.4601L160.43 78.8201L176.87 62.4601L191.38 76.8901L193.19 75.0701L176.87 58.8301Z" fill="#0B315E"/>
<path d="M176.87 29.5801L160.43 45.9401L143.98 29.5801L127.54 45.9401L111.1 29.5801L98.0598 42.5601L98.0498 46.2001L111.1 33.2101L127.54 49.5701L143.98 33.2101L160.43 49.5701L176.87 33.2101L191.38 47.6401L193.19 45.8101L176.87 29.5801Z" fill="#FF9D00"/>
<path d="M21.3398 10.6406L21.3198 29.7806L37.8998 20.2206L21.3398 10.6406Z" fill="#FFC200"/>
<path d="M44.3098 0L44.2798 40.44L79.3198 20.25L44.3098 0ZM49.7798 9.5L68.3498 20.24L49.7698 30.95L49.7798 9.5Z" fill="#0B315E"/>
</svg>
